:SAMPLES-PER-SECOND 30
:FULLY-SPECIFIED
:DEGREES
127
root  -29.2943 38.3465 2.98158 -3.55457 0.38968 -4.30056
RightUpLeg  -25.6531 -11.4933 7.04955
RightLeg  22.1895 -1.08119 -0.805038
RightFoot  6.67606 0.862398 -5.14023
RightToes  -5.8209e-011 0 -3.6325e-017
Spine  3.52845 -3.73111 5.55967
Spine1  8.96866 -5.00313 5.31744
HEad  -3.74286 9.93292 -8.64288
LeftShoulder1  9.22994 -12.8319 -49.3267
LeftArm  -11.1131 0.805904 -23.6299
LeftForeArm  30.5599 -40.6936 -7.64876
LeftHand  -0.244104 0.0205437 5.32207
RightShoulder  6.199 9.6388 40.972
RightArm  -9.77991 -21.6672 26.9136
RightForeArm  5.7603 9.09076 6.07314
RightHand  -1.16137 3.13565 -15.9638
LeftUpLeg  15.3864 5.01991 6.2534
LeftLeg  35.0119 -0.725602 -0.181282
LeftFoot  -7.35383 0.415901 -11.3181
LeftToes  5.72949e-011 -2.03295e-011 6.54899e-012
128
root  -29.4793 38.3909 4.43734 -3.71141 0.745826 -5.49552
RightUpLeg  -24.3618 -10.9351 7.97649
RightLeg  25.3234 -2.26697 -1.39786
RightFoot  2.54396 0.704444 -5.60965
RightToes  -5.8209e-011 0 -3.6325e-017
Spine  3.79513 -3.82261 7.19169
Spine1  9.12266 -4.95198 6.06009
HEad  -2.18929 9.47445 -8.78237
LeftShoulder1  9.19762 -12.8005 -49.2489
LeftArm  -10.0076 3.42788 -24.5677
LeftForeArm  30.584 -40.7639 -7.67057
LeftHand  -0.244104 0.0205437 5.32207
RightShoulder  6.20122 9.73175 40.6754
RightArm  -8.40174 -18.5686 28.048
RightForeArm  1.27929 12.6339 6.2526
RightHand  -1.19141 3.18703 -16.2686
LeftUpLeg  8.23234 3.45077 7.61007
LeftLeg  47.8566 0.134465 0.59294
LeftFoot  3.09036 1.28523 -10.3708
LeftToes  5.72949e-011 -2.03295e-011 6.54899e-012
129
root  -29.6261 38.5746 5.81285 -3.96515 1.86564 -6.33095
RightUpLeg  -22.2146 -11.982 8.537
RightLeg  26.5119 -2.54779 -1.62535
RightFoot  -0.543419 0.515019 -5.48448
RightToes  -5.8209e-011 0 -3.6325e-017
Spine  3.74878 -3.8264 8.81034
Spine1  9.831 -4.75194 6.17243
HEad  -1.19459 8.06245 -8.34802
LeftShoulder1  9.23839 -12.8667 -49.2672
LeftArm  -7.85273 4.7466 -25.5184
LeftForeArm  29.8962 -39.08 -7.21592
LeftHand  -0.244104 0.0205437 5.32207
RightShoulder  6.17412 9.68117 40.6515
RightArm  -3.75709 -15.5489 28.9418
RightForeArm  -5.48429 18.0305 5.886
RightHand  -1.27589 3.38412 -17.0166
LeftUpLeg  0.596346 1.72696 8.35138
LeftLeg  58.6309 0.922378 2.20389
LeftFoot  6.88409 1.21868 -7.7819
LeftToes  5.72949e-011 -2.03295e-011 6.54899e-012
130
root  -29.7637 38.9767 7.23585 -4.43045 2.29537 -6.15069
RightUpLeg  -18.7936 -13.3081 8.00499
RightLeg  25.7187 -1.85463 -1.19184
RightFoot  -2.28522 0.421657 -5.51069
RightToes  -5.8209e-011 0 -3.6325e-017
Spine  3.72086 -3.21811 9.58964
Spine1  10.3313 -3.88267 5.35918
HEad  -0.594058 7.49363 -8.20515
LeftShoulder1  9.31036 -12.9268 -49.47
LeftArm  -5.45228 5.66755 -26.3935
LeftForeArm  29.4143 -36.2271 -6.44829
LeftHand  -0.244104 0.0205437 5.32207
RightShoulder  6.19255 9.65098 40.8843
RightArm  0.212956 -12.8843 29.0954
RightForeArm  -9.01269 24.2152 5.55896
RightHand  -1.31102 3.37562 -17.4926
LeftUpLeg  -5.82229 1.61756 8.11927
LeftLeg  65.0994 1.725 4.71614
LeftFoot  4.86155 0.690177 -5.02635
LeftToes  5.72949e-011 -2.03295e-011 6.54899e-012
131
root  -29.9041 39.3909 8.63451 -4.83522 1.8853 -5.36289
RightUpLeg  -14.9287 -13.8878 6.68679
RightLeg  24.1799 -1.14414 -0.445629
RightFoot  -3.80569 0.325295 -5.31658
RightToes  -5.8209e-011 0 -3.6325e-017
Spine  3.97489 -2.29522 9.61216
Spine1  10.413 -2.66347 4.35677
HEad  -0.124861 6.41838 -7.76036
LeftShoulder1  9.29874 -12.8809 -49.546
LeftArm  -3.65412 7.24916 -27.373
LeftForeArm  29.0457 -32.9404 -5.62346
LeftHand  -0.244104 0.0205437 5.32207
RightShoulder  6.24224 9.74159 40.9348
RightArm  0.467486 -10.4191 28.8635
RightForeArm  -5.53231 29.8843 6.797
RightHand  -1.16529 2.58763 -17.0567
LeftUpLeg  -11.2074 2.85142 7.32019
LeftLeg  67.1969 2.20951 6.49201
LeftFoot  1.46269 0.384479 -3.53628
LeftToes  5.72949e-011 -2.03295e-011 6.54899e-012
132
root  -30.0258 39.7097 9.99503 -5.07093 1.29674 -4.68337
RightUpLeg  -11.2331 -13.3715 5.22031
RightLeg  22.6176 -1.29332 0.437243
RightFoot  -5.33496 0.221833 -4.91339
RightToes  -5.8209e-011 0 -3.6325e-017
Spine  4.17362 -1.49353 9.69079
Spine1  10.4195 -1.58378 3.38629
HEad  0.154299 5.71061 -7.48543
LeftShoulder1  9.24313 -12.8049 -49.4791
LeftArm  -2.18233 9.46445 -28.2621
LeftForeArm  27.5105 -29.3075 -4.83546
LeftHand  -0.244104 0.0205437 5.32207
RightShoulder  6.25082 9.85677 40.6124
RightArm  0.997047 -8.00367 28.9685
RightForeArm  -1.18793 35.0491 7.9529
RightHand  -0.913302 1.2397 -16.0703
LeftUpLeg  -15.9556 4.12132 6.42646
LeftLeg  65.7394 2.30608 6.30903
LeftFoot  -0.693633 0.283195 -2.99533
LeftToes  5.72949e-011 -2.03295e-011 6.54899e-012
133
root  -30.1203 39.9894 11.3424 -5.22009 0.833315 -4.21207
RightUpLeg  -7.63555 -12.0735 3.87277
RightLeg  20.7553 -2.11225 1.38828
RightFoot  -6.4483 0.15029 -4.53462
RightToes  -5.8209e-011 0 -3.6325e-017
Spine  4.00878 -0.864644 10.0576
Spine1  10.6946 -0.692458 2.12421
HEad  0.100744 5.27265 -7.20031
LeftShoulder1  9.28151 -12.8236 -49.6269
LeftArm  -0.251244 11.6581 -28.657
LeftForeArm  24.2397 -25.0673 -4.12351
LeftHand  -0.244104 0.0205437 5.32207
RightShoulder  6.22544 9.91101 40.255
RightArm  1.33236 -5.63253 29.2771
RightForeArm  1.92946 39.6051 9.15189
RightHand  -0.732483 0.142174 -15.4107
LeftUpLeg  -19.7894 5.14128 5.47272
LeftLeg  60.9935 2.18649 4.87785
LeftFoot  -2.10339 0.212553 -2.48078
LeftToes  5.72949e-011 -2.03295e-011 6.54899e-012
134
root  -30.1935 40.1892 12.6652 -5.30169 0.392817 -3.87552
RightUpLeg  -4.34963 -10.8045 2.8392
RightLeg  19.0348 -2.7601 2.18554
RightFoot  -7.5645 0.0827202 -4.04085
RightToes  -5.8209e-011 0 -3.6325e-017
Spine  3.59172 -0.314466 10.5401
Spine1  11.1928 0.11244 0.717768
HEad  -0.0917311 4.94309 -6.9393
LeftShoulder1  9.39975 -12.9037 -50.0124
LeftArm  0.734014 13.6069 -28.5302
LeftForeArm  21.8705 -20.2416 -4.16311
LeftHand  -0.244104 0.0205437 5.32207
RightShoulder  6.22017 9.93199 40.1493
RightArm  1.5413 -3.35012 29.5543
RightForeArm  3.12191 43.2523 10.3312
RightHand  -0.669157 -0.325437 -15.3372
LeftUpLeg  -22.3192 6.46033 4.58203
LeftLeg  52.9885 1.9943 3.31164
LeftFoot  -3.10976 0.2207 -2.8137
LeftToes  5.72949e-011 -2.03295e-011 6.54899e-012
135
root  -30.2485 40.2541 13.9811 -5.30094 -0.10665 -3.74431
RightUpLeg  -1.51404 -10.0285 2.25276
RightLeg  17.9965 -2.93596 2.67018
RightFoot  -9.1441 0.00754525 -3.63972
RightToes  -5.8209e-011 0 -3.6325e-017
Spine  3.06811 0.161875 11.0676
Spine1  11.6497 0.802567 -0.536546
HEad  -0.362225 4.76871 -6.72597
LeftShoulder1  9.46635 -12.9405 -50.2522
LeftArm  -2.21683 15.5979 -28.1626
LeftForeArm  24.2627 -15.1077 -5.60013
LeftHand  -0.244104 0.0205437 5.32207
RightShoulder  6.22889 9.96175 40.1138
RightArm  1.96899 -1.29279 29.8862
RightForeArm  3.30443 45.7724 11.291
RightHand  -0.642701 -0.548604 -15.3905
LeftUpLeg  -23.4218 8.26437 3.83323
LeftLeg  42.2078 1.78937 2.113
LeftFoot  -2.86038 0.320262 -4.06852
LeftToes  5.72949e-011 -2.03295e-011 6.54899e-012
136
root  -30.2824 40.2673 15.3014 -5.38383 -0.657193 -3.71682
RightUpLeg  1.38918 -9.47695 1.92305
RightLeg  16.9616 -2.93478 2.8822
RightFoot  -10.7192 -0.0526263 -3.78298
RightToes  -5.8209e-011 0 -3.6325e-017
Spine  2.5703 0.521788 11.5135
Spine1  12.0628 1.37156 -1.80366
HEad  -0.736011 4.73081 -6.50329
LeftShoulder1  9.48147 -12.9525 -50.2953
LeftArm  -5.32575 17.8588 -27.8538
LeftForeArm  27.4698 -10.4268 -6.48867
LeftHand  -0.244104 0.0205437 5.32207
RightShoulder  6.24094 10.0298 39.978
RightArm  2.77842 0.334089 30.2659
RightForeArm  3.31604 47.3694 11.9607
RightHand  -0.584539 -0.964311 -15.2755
LeftUpLeg  -23.0631 10.2604 2.92992
LeftLeg  29.4136 1.14056 1.15325
LeftFoot  -1.24177 0.399774 -4.4652
LeftToes  5.72949e-011 -2.03295e-011 6.54899e-012
137
root  -30.2815 40.2307 16.6208 -5.75967 -1.2178 -3.75793
RightUpLeg  4.50724 -9.27308 1.63216
RightLeg  16.0384 -2.49493 2.90809
RightFoot  -12.3295 -0.116799 -3.95443
RightToes  -5.8209e-011 0 -3.6325e-017
Spine  2.2385 0.736641 11.9064
Spine1  12.6082 1.84366 -3.04857
HEad  -1.13139 4.78783 -6.26395
LeftShoulder1  9.56094 -13.0181 -50.5132
LeftArm  -6.10256 20.3179 -27.4895
LeftForeArm  28.9904 -6.90631 -6.58107
LeftHand  -0.244104 0.0205437 5.32207
RightShoulder  6.30437 10.1716 39.9639
RightArm  3.80779 1.51381 30.4374
RightForeArm  3.30238 48.1522 12.3065
RightHand  -0.525428 -1.382 -15.1192
LeftUpLeg  -21.3704 11.1509 2.43608
LeftLeg  16.156 0.532918 -0.0227782
LeftFoot  1.06942 0.421537 -3.93374
LeftToes  5.72949e-011 -2.03295e-011 6.54899e-012
